<?xml version="1.0" standalone="no"?><!DOCTYPE svg PUBLIC "-//W3C//DTD SVG 1.1//EN" "http://www.w3.org/Graphics/SVG/1.1/DTD/svg11.dtd"><svg class="icon" height="512" viewBox="0 0 1024 1024" version="1.1" xmlns="http://www.w3.org/2000/svg"><path d="M548.571429 146.285714c0-20.004571-16.566857-36.571429-36.571429-36.571428s-36.571429 16.566857-36.571429 36.571428 16.566857 36.571429 36.571429 36.571429 36.571429-16.566857 36.571429-36.571429z m475.428571 530.285715V877.714286a18.724571 18.724571 0 0 1-11.446857 17.152 28.16 28.16 0 0 1-6.838857 1.133714 20.041143 20.041143 0 0 1-13.129143-5.156571l-53.138286-53.138286C849.737143 945.700571 688.603429 1014.857143 512 1014.857143s-337.700571-69.156571-427.446857-177.152L31.414857 890.843429A19.017143 19.017143 0 0 1 18.285714 896c-2.304 0-4.571429-0.585143-6.838857-1.133714A18.761143 18.761143 0 0 1 0 877.714286v-201.142857c0-10.276571 8.009143-18.285714 18.285714-18.285715H219.428571c7.424 0 14.299429 4.571429 17.152 11.446857s1.133714 14.299429-3.986285 20.004572l-57.161143 57.161143C226.852571 816.054857 325.705143 866.340571 438.857143 881.737143V512.036571H329.142857c-20.004571 0-36.571429-16.566857-36.571428-36.571428v-73.142857c0-20.004571 16.566857-36.571429 36.571428-36.571429h109.714286V272.603429a145.773714 145.773714 0 0 1-73.142857-126.281143c0-80.566857 65.718857-146.285714 146.285714-146.285715s146.285714 65.718857 146.285714 146.285715a145.737143 145.737143 0 0 1-73.142857 126.281143v93.147428h109.714286c20.004571 0 36.571429 16.566857 36.571428 36.571429v73.142857c0 20.004571-16.566857 36.571429-36.571428 36.571428h-109.714286V881.737143c113.152-15.433143 212.004571-65.718857 263.424-134.838857L791.405714 689.737143c-5.156571-5.705143-6.838857-13.129143-3.986285-20.004572S797.147429 658.285714 804.571429 658.285714h201.142857c10.276571 0 18.285714 8.009143 18.285714 18.285715z" fill="" /></svg>