<?xml version="1.0" standalone="no"?><!DOCTYPE svg PUBLIC "-//W3C//DTD SVG 1.1//EN" "http://www.w3.org/Graphics/SVG/1.1/DTD/svg11.dtd"><svg class="icon" height="512" viewBox="0 0 1024 1024" version="1.1" xmlns="http://www.w3.org/2000/svg"><path d="M848.9 497.5c-31.4 0-60.2 10.8-83.2 28.9v-96.6c0-13.2-10.7-23.9-23.9-23.9H603.1c-7.1-7.9-43.5-53.6 2.8-116.2 60.7-82.1 25-155-2.4-182.1-9.3-9.2-24.3-9.2-33.6 0.1-9.3 9.3-9.3 24.4-0.2 33.7 5 5.2 47.7 52.3-2.3 119.8-41.7 56.5-36.4 109.1-20.4 144.7H414.3c-6.4-9.5-24.2-42.4 3.2-84.3 44.1-67.5 17.1-123.1-3.3-143.1-9.4-9.2-24.6-9-33.8 0.4-9.2 9.4-9 24.6 0.4 33.8 0.3 0.3 30.6 30.8-3.3 82.7-27.3 41.8-25.4 81.9-15.8 110.5H226.5c-3.8-9.7-9.6-30.9 2.4-51.1 32.3-54.5 0.2-100.3-1.2-102.2-7.7-10.7-22.6-13.1-33.4-5.4-10.7 7.7-13.2 22.6-5.4 33.4 0.2 0.2 15.4 22-1.2 49.9-16.5 27.8-15.5 55.5-11 75.5H63.9C50.7 406 40 416.7 40 429.9v130.7c0 200.1 162.8 362.8 362.8 362.8 148.5 0 276.4-89.7 332.5-217.7 24.1 37.3 65.9 62.2 113.6 62.2 74.5 0 135.1-60.6 135.1-135.1s-60.6-135.3-135.1-135.3z m-446.1 378c-173.7 0-315-141.3-315-315V453.7h630.1v106.8c0 173.7-141.4 315-315.1 315z m446.1-155.6c-48.2 0-87.3-39.2-87.3-87.3 0-48.2 39.2-87.3 87.3-87.3 48.1 0 87.3 39.2 87.3 87.3s-39.2 87.3-87.3 87.3z" /></svg>