<?xml version="1.0" standalone="no"?><!DOCTYPE svg PUBLIC "-//W3C//DTD SVG 1.1//EN" "http://www.w3.org/Graphics/SVG/1.1/DTD/svg11.dtd"><svg class="icon" height="512" viewBox="0 0 1024 1024" version="1.1" xmlns="http://www.w3.org/2000/svg"><path d="M978.0514749250369 446.8156224853333l0 409.98709809303705c0 77.31788489007407-62.91912567466667 140.20720503466666-140.2221071928889 140.20720503466666L598.2652588942223 997.0099243994072l0-94.98287945955555 239.5641076242963 0c24.936405522962964 0 45.233017590518514-20.287918838518518 45.233017590518514-45.223082818370365 4.785097690074073-381.6130720805926 2.034256858074074-381.40318818607403 0-409.98709809303705-7.034204615111111-98.52730421096297-32.66235718162963-204.10371640888886-162.36172143881478-360.18259133629624l92.71141747674073-50.031777109333326C813.4120825742223 36.60125403970375 978.0514749250369 250.97933073066667 978.0514749250369 446.8156224853333z"  /><path d="M572.1751151502222 997.0099243994072L425.811738624 997.0099243994072c-28.30820359585185 0-51.37056108088888-21.303805724444445-51.37056108088888-47.47343250014816 0-26.19943351940741 23.062356271407406-47.51068971614815 51.37056108088888-47.51068971614815l146.36337531259255 0L572.1751151502222 997.0099243994072z"  /><path d="M787.638625773037 495.0900893771852c-24.25956185125926-119.34179510044444-141.46029704533333-179.8106231845926-348.68121994429623-179.8106231845926-207.2184385991111 0-324.42165687940735 60.46882808414815-348.6650750293333 179.8106231845926-24.490558046814808 2.2776721256296297-43.71912385422222 56.00041855051852-43.71912385422222 81.06846769303704 0 24.74763514311111 18.767814959407406 78.25428874429629 42.795139072 80.95545328829628 12.699819728592592 73.18230842785185 53.86680911644444 145.11649344474074 87.23581549985185 165.08027244088885 38.1553456165926 22.79534440296296 91.6309521445926 51.689732323555546 264.74517117155557 51.689732323555546 165.7086813677037 0 222.761002477037-30.491490531555556 265.5263348053333-54.747326539851855 25.5846852077037-15.038345671111111 68.85672004266667-84.41542762192591 81.85832455585185-162.04379052562962 23.985099510518516-2.760776817777778 42.66722250903704-56.24383381807407 42.66722250903704-80.93434098725925C831.4024585291852 551.0818146986666 812.1453287348149 497.3478895312592 787.638625773037 495.0900893771852zM487.27534129303706 763.6069556527407l-89.39674737777777 0c-9.13925006222222 0-16.51994957748148-7.393118587259259-16.51994957748148-16.524916963555555 0 0 28.914258678518518-90.14934823822222 29.115449344-90.53558344059259 2.769470046814815-5.2694439253333325 8.289780925629628-8.87472249362963 14.660803697777776-8.87472249362963l34.9127068634074 0c6.414490130962963 0 11.948461624888887 3.6412942411851854 14.700544 8.951721225481482l29.074465071407406 90.45858470874074C503.8238548574815 756.2138370654815 496.4145913552593 763.6069556527407 487.27534129303706 763.6069556527407zM637.833904128 750.1222452337777c-52.19519207348148 0-78.19964385659259-36.78551457185185-105.73165241837036-75.72699242192591-24.30054491022222-34.37868312651852-49.32388515081481-69.7583497671111-93.08523360711112-69.78567221096296-44.23824421925926 0.027322443851851848-69.17464974222223 35.45293952948148-93.29015011555553 69.71488240829629-27.503443361185184 38.99115413807408-53.449525627259256 75.79778101096296-105.57144481185185 75.79778101096296-34.30665178074074 0-99.1271491508148-29.44952395851852-99.1271491508148-140.8989508645926 0-42.58773947733333 0-172.18774994488888 297.92789026133335-172.18774994488888 297.94403517629627 0 297.94403517629627 129.60001046755556 297.94403517629627 172.18774994488888C736.9026837617779 720.6727212752592 672.1107503786666 750.1222452337777 637.833904128 750.1222452337777z"  /></svg>