<?xml version="1.0" encoding="utf-8"?>
<!-- Svg Vector Icons : http://www.onlinewebfonts.com/icon -->
<!DOCTYPE svg PUBLIC "-//W3C//DTD SVG 1.1//EN" "http://www.w3.org/Graphics/SVG/1.1/DTD/svg11.dtd">
<svg version="1.1" xmlns="http://www.w3.org/2000/svg" xmlns:xlink="http://www.w3.org/1999/xlink" x="0px" y="0px" viewBox="0 0 1000 1000" enable-background="new 0 0 1000 1000" xml:space="preserve">
<metadata> Svg Vector Icons : http://www.onlinewebfonts.com/icon </metadata>
<g><g><path d="M502.8,408.4c-18.2-36-38.5-73.6-64.9-110.1c4.7-4.5,9.5-8.8,14.5-13.1c71.7-61.5,167.4-91.3,292.5-91.3V10l245,245L745,500V316.2C615.8,316.2,549.1,352.4,502.8,408.4z M745,683.7c-207.1,0-253.7-93.2-312.7-211.1c-32.9-65.6-66.8-133.5-129.8-187.5c-71.7-61.5-167.4-91.3-292.5-91.3v122.5c207.1,0,253.7,93.2,312.7,211.2c32.8,65.7,66.8,133.5,129.8,187.5c71.7,61.5,167.4,91.3,292.5,91.3V990l245-245L745,500V683.7z M10,683.7v122.5c125.2,0,220.8-29.8,292.5-91.3c5-4.3,9.8-8.7,14.5-13.2c-26.4-36.6-46.6-74.2-64.9-110.2C205.9,647.5,139.2,683.7,10,683.7z"/></g><g></g><g></g><g></g><g></g><g></g><g></g><g></g><g></g><g></g><g></g><g></g><g></g><g></g><g></g><g></g></g>
</svg>