<?xml version="1.0" encoding="utf-8"?>
<!-- Svg Vector Icons : http://www.onlinewebfonts.com/icon -->
<!DOCTYPE svg PUBLIC "-//W3C//DTD SVG 1.1//EN" "http://www.w3.org/Graphics/SVG/1.1/DTD/svg11.dtd">
<svg version="1.1" xmlns="http://www.w3.org/2000/svg" xmlns:xlink="http://www.w3.org/1999/xlink" x="0px" y="0px" viewBox="0 0 1000 1000" enable-background="new 0 0 1000 1000" xml:space="preserve">
<metadata> Svg Vector Icons : http://www.onlinewebfonts.com/icon </metadata>
<g><g transform="translate(0.000000,512.000000) scale(0.100000,-0.100000)"><path d="M7029.5,5010.1c-63.4-17.3-274.6-107.5-470.4-201.6c-195.8-94.1-407.1-186.3-470.4-203.5c-142.1-42.2-372.5-42.2-489.6-1.9c-46.1,17.3-88.3,28.8-92.2,25c-1.9-3.8,36.5-280.3,86.4-612.5c105.6-693.1,74.9-629.8,316.8-670.1c211.2-36.5,366.7,3.8,798.7,211.2c197.8,96,407.1,188.2,464.7,207.4c134.4,44.2,380.2,46.1,499.2,1.9c46.1-17.3,86.4-28.8,90.3-26.9c1.9,1.9-63.4,78.7-144,170.9c-136.3,153.6-270.7,280.3-449.3,428.2l-71,57.6l97.9,144c117.1,172.8,217,288,313,364.8l73,57.6l-74.9,30.7C7403.9,5037,7169.7,5044.7,7029.5,5010.1z"/><path d="M5071.1,4606.9c-26.9-25-48-59.5-48-76.8c0-25,472.3-3145,549.1-3640.4l11.5-71l-284.2-11.5c-157.5-7.7-316.8-15.4-357.1-17.3c-69.1-3.8-73,0-291.8,291.8C4328,1508,4262.7,1579,4141.8,1640.4c-165.1,82.6-366.7,149.8-581.8,192l-195.8,40.3l-34.6-44.2c-19.2-25-73-99.8-119-169l-86.4-124.8l115.2-802.6l115.2-804.5l-65.3-78.7c-36.5-44.2-96-113.3-130.6-151.7l-65.3-73l-126.7,149.8L2840-76.1l111.4,775.7c61.4,428.2,111.4,794.9,113.3,817.9c0,21.1-51.8,109.4-113.3,195.8c-130.6,176.7-96,167.1-403.2,107.5c-169-32.6-266.9-32.6-320.7-1.9c-23,13.4-136.3,113.3-253.4,224.6l-213.1,201.6l-270.7,526.1c-147.9,289.9-284.2,545.3-303.4,564.5c-122.9,136.3-347.5,113.3-445.5-48c-74.9-122.9-61.4-167,243.9-771.9l282.2-558.7l220.8-220.8c122.9-122.9,337.9-332.2,478.1-468.5c140.2-136.3,278.4-282.3,307.2-324.5l51.8-78.7l9.6-1970l9.6-1970l53.8-80.6l51.8-80.6l-71-44.2c-40.3-25-201.6-126.7-361-224.6C1432.6-3870.1,178.8-4699.6,100-4774.5c-11.5-9.6,2018-17.3,4890.4-17.3H9900v660.5v662.4l-111.4,84.5c-380.2,293.8-1167.4,766.1-1760.7,1058c-779.5,385.9-1424.7,595.2-1902.8,620.2c-403.2,23-944.7-122.9-1655.1-445.5c-101.8-46.1-188.2-80.6-192-76.8c-3.8,1.9-99.8,337.9-217,741.2L3851.8-750V12.2c0,428.2,7.7,781.5,17.3,808.3c23,59.5,96,128.7,136.3,128.7c17.3,0,140.2-144,278.4-322.6c138.2-178.6,270.7-339.9,297.6-361c55.7-42.2,226.6-48,771.9-21.1l318.7,15.4l13.5-101.8c7.7-55.7,69.1-455,134.4-889c134.4-867.9,128.7-854.4,272.7-854.4c73,0,159.4,69.1,159.4,128.6c0,19.2-55.7,401.3-124.8,850.6c-69.1,449.3-124.8,833.3-124.8,854.4c0,23,23,51.8,57.6,71c213.1,121,155.5,460.8-86.4,506.9c-51.9,9.6-65.3,21.1-74.9,71c-5.8,34.6-132.5,860.2-280.3,1837.5s-280.3,1801-291.9,1829.8C5286.1,4666.5,5151.7,4689.5,5071.1,4606.9z M3264.3-1301.1c263.1-833.3,374.4-1188.5,380.2-1219.2c3.8-23-74.9-76.8-299.5-201.6c-169-92.2-309.1-169-313-169c-11.5,0-5.8,1895.1,7.7,1906.6c5.8,7.7,36.5,13.4,65.3,13.4C3158.7-970.8,3160.6-976.6,3264.3-1301.1z"/><path d="M2953.3,3520.2c-441.6-86.4-714.3-541.4-581.8-971.6c144-468.5,689.3-683.5,1109.8-435.8c433.9,253.4,506.9,852.5,145.9,1202C3440.9,3495.2,3200.9,3570.1,2953.3,3520.2z"/></g></g>
</svg>