<?xml version="1.0" standalone="no"?><!DOCTYPE svg PUBLIC "-//W3C//DTD SVG 1.1//EN" "http://www.w3.org/Graphics/SVG/1.1/DTD/svg11.dtd"><svg class="icon" height="512" viewBox="0 0 1024 1024" version="1.1" xmlns="http://www.w3.org/2000/svg"><path d="M0 0M291.259733 1019.6992c-0.034133 0-0.034133 0 0 0-96.426667 0-192.512-97.416533-196.539733-101.5808-71.68-73.591467-132.130133-224.392533-54.101333-304.401067 26.385067-27.136 63.488-40.925867 99.362133-54.203733 34.645333-12.868267 70.417067-26.180267 94.8224-51.2 11.741867-12.049067 20.036267-37.6832 28.125867-62.464 8.6016-26.5216 17.578667-53.9648 32.631466-75.127467 29.866667-41.8816 65.262933-64.9216 99.703467-64.9216 26.555733 0 50.5856 13.789867 67.720533 38.912 22.084267 32.3584 11.502933 60.142933 2.1504 84.616534-10.615467 27.7504-21.572267 56.32 1.262934 104.994133 18.261333 38.980267 37.205333 43.9296 51.677866 43.9296 9.045333 0 18.500267-2.116267 27.7504-3.9936 9.250133-2.013867 18.773333-4.061867 27.9552-4.061867 18.466133 0 32.119467 8.328533 40.686934 24.746667 25.019733 47.991467-26.897067 82.193067-72.669867 112.3328-23.2448 15.2576-47.3088 31.1296-61.2352 47.650133-9.591467 11.400533-13.585067 32.426667-18.2272 56.866134-8.704 45.806933-20.616533 108.544-79.633067 169.096533-25.053867 25.7024-55.9104 38.8096-91.4432 38.8096z m104.072534-679.765333c-22.766933 0-48.981333 18.466133-71.8848 50.619733-12.0832 16.896-20.138667 41.7792-27.989334 65.8432-9.693867 29.832533-18.875733 57.992533-36.1472 75.741867-29.7984 30.583467-69.256533 45.192533-107.451733 59.323733-33.792 12.526933-65.7408 24.405333-86.766933 46.045867-59.8016 61.371733-7.8848 193.092267 54.101333 256.8192 30.754133 31.5392 106.325333 91.204267 172.100267 91.204266 26.385067 0 48.3328-9.3184 67.072-28.603733 51.9168-53.213867 62.225067-107.758933 70.5536-151.586133 5.5296-29.149867 10.308267-54.237867 25.736533-72.465067 17.1008-20.309333 43.246933-37.512533 68.539733-54.135467 43.451733-28.603733 71.168-48.776533 61.166934-67.9936-5.8368-11.195733-16.042667-6.382933-31.266134-3.072-10.4448 2.184533-22.3232 4.8128-34.9184 4.8128-35.498667 0-62.532267-20.753067-82.568533-63.556266-29.013333-61.781333-13.5168-102.161067-2.218667-131.652267 9.4208-24.6784 13.1072-36.283733 1.536-53.179733-7.543467-11.093333-20.445867-24.1664-39.594666-24.1664zM769.592889 252.268089l24.462222 23.802311-299.485867 307.859911-24.462222-23.802311L769.592889 252.268089zM689.072356 204.401778l24.416711 23.802311-266.478934 273.396622-24.416711-23.802311 266.478934-273.396622zM772.334933 287.9488c-19.899733 0-37.6832-7.953067-52.974933-23.620267-27.2384-27.921067-38.4-52.599467-35.259733-77.585066 4.778667-37.649067 42.222933-67.652267 97.109333-101.137067 13.6192-8.362667 26.555733-16.5888 38.877867-24.3712C870.0928 29.422933 909.550933 4.3008 947.029333 4.3008c17.032533 0 32.836267 5.3248 47.0016 15.803733 23.074133 17.066667 31.573333 45.226667 22.254934 73.557334-9.250133 27.989333-39.1168 60.450133-93.149867 63.044266-27.613867 50.107733-88.200533 131.242667-150.801067 131.242667zM946.961067 38.4c-27.579733 0-63.2832 22.766933-108.6464 51.6096-12.3904 7.850667-25.531733 16.247467-39.355734 24.712533-54.237867 33.0752-78.4384 55.9104-80.9984 76.253867-1.774933 13.653333 6.690133 29.9008 25.8048 49.527467 8.772267 8.942933 18.090667 13.312 28.535467 13.312 39.6288 0 94.754133-61.917867 125.2352-121.787734 3.003733-5.870933 9.216-9.693867 15.6672-9.3184h0.1024c43.178667 0 64.512-21.367467 70.485333-39.7312 2.184533-6.7584 5.666133-23.722667-10.1376-35.464533-8.3968-6.212267-16.861867-9.1136-26.692266-9.1136zM278.289067 829.917867c-4.437333 0-8.874667-1.672533-12.1856-5.12l-66.628267-68.334934a17.043911 17.043911 0 1 1 24.439467-23.790933l66.628266 68.334933a17.078044 17.078044 0 0 1-0.3072 24.132267 17.180444 17.180444 0 0 1-11.946666 4.778667zM344.8832 761.6512c-4.437333 0-8.874667-1.7408-12.219733-5.154133l-66.56-68.437334c-6.5536-6.724267-6.417067-17.544533 0.341333-24.132266s17.544533-6.417067 24.132267 0.341333l66.594133 68.471467a17.078044 17.078044 0 0 1-0.375467 24.132266c-3.345067 3.208533-7.611733 4.778667-11.912533 4.778667zM311.569067 881.186133a24.541867 24.541867 0 0 1 0 34.2016 23.131022 23.131022 0 0 1-33.28 0 24.541867 24.541867 0 0 1 0-34.2016 23.187911 23.187911 0 0 1 33.28 0z" /></svg>