<?xml version="1.0" standalone="no"?><!DOCTYPE svg PUBLIC "-//W3C//DTD SVG 1.1//EN" "http://www.w3.org/Graphics/SVG/1.1/DTD/svg11.dtd"><svg class="icon" height="512" viewBox="0 0 1025 1024" version="1.1" xmlns="http://www.w3.org/2000/svg"><path d="M162.0137 446.217784C5.309775 471.193394 11.176749 566.048268 1.966583 611.279688c-18.354779 113.373536 98.394725 240.087062 98.394725 240.087062l-6.653607 131.793867 190.135843 0 14.519941-60.603547c0 0 8.25965 13.831637 57.39146 17.994239 49.099033 4.162602 43.068177-55.785417 43.068177-55.785417s32.710838-14.388836 32.710838-25.270597-19.338071-24.811728-19.338071-24.811728 20.845785 3.769285 28.318802-4.949235c7.505793-8.816849-9.144613-40.41329-9.144613-40.41329s25.598361-0.655528 40.708277-17.240382-47.558543-65.782216-47.558543-97.542539C460.049421 500.724922 318.848729 421.209398 162.0137 446.217784zM1022.066193 645.924333c-9.210166-45.296972-3.343192-140.053518-160.079892-165.127457-156.769477-25.041163-298.002945 54.572691-262.506114 228.353114 0 31.69477-62.701236 80.859356-47.591319 97.509762s40.741054 17.273158 40.741054 17.273158-16.683183 31.661993-9.177389 40.380513c7.505793 8.784073 28.351578 4.949235 28.351578 4.949235s-19.338071 13.995519-19.338071 24.844504c0 10.816209 32.710838 25.270597 32.710838 25.270597s-6.063632 59.915242 43.035401 55.752641c49.13181-4.162602 57.39146-17.994239 57.39146-17.994239l14.552717 60.636323 190.103066 0-6.653607-131.793867C923.671468 885.978619 1040.388195 759.297868 1022.066193 645.924333zM479.649702 375.846873l-57.522566 100.426861 24.811728-3.834838c1.63882-0.262211 166.864605-25.893349 280.205365-59.456373 148.673708-44.117022 233.925101-117.24115 233.925101-200.820946-0.032776-113.570194-134.350426-205.96684-299.543435-205.96684-165.160233 0-299.543435 92.396646-299.543435 205.96684C361.98246 276.567185 405.706165 337.039626 479.649702 375.846873zM661.525895 30.383714c151.820242 0 275.354459 81.514884 275.354459 181.777863 0 102.360668-151.492478 158.309967-216.58639 177.615262-85.677485 25.368926-201.738685 46.247487-252.017669 54.703796l45.296972-79.056655-11.799501-5.604763c-72.337494-34.316881-115.471225-89.512323-115.471225-147.65764C386.138659 111.964151 509.705653 30.383714 661.525895 30.383714z" /></svg>