<?xml version="1.0" standalone="no"?><!DOCTYPE svg PUBLIC "-//W3C//DTD SVG 1.1//EN" "http://www.w3.org/Graphics/SVG/1.1/DTD/svg11.dtd"><svg class="icon" height="512" viewBox="0 0 1792 1024" version="1.1" xmlns="http://www.w3.org/2000/svg"><path d="M1458.724816 402.761586a310.518943 310.518943 0 0 0-307.959018 271.437417h-69.800631c11.946318-95.570546 36.521601-199.332853 87.293454-229.795965 101.03172-60.5849 319.990667-118.609874 319.990667-118.609874h186.362565v-63.144825h-650.306366l-146.51306-88.402754H695.952397V68.179345h147.707692a34.132338 34.132338 0 0 0 34.132338-34.132338 34.132338 34.132338 0 0 0-34.132338-34.047007h-213.327111a34.132338 34.132338 0 0 0-34.132338 34.132338c0 18.772786 15.359552 34.047007 34.132338 34.047007h5.717166v106.06624H526.656002s-32.767044 25.855246-30.29245 77.309745c2.559925 51.454499 12.628965 61.60887 12.628965 61.608869l17.151499 17.066169-73.384526 107.09021a310.604274 310.604274 0 1 0 60.670231 40.958806l65.448757-95.314554 95.570546 95.570546 46.761303 268.962822s2.559925 50.430529 42.921415 85.84283c40.361489 35.32697 80.80831 52.990454 80.80831 52.990454h199.503514l25.25793-30.29245s-0.255993-46.50531 4.181211-108.540834h76.115114a310.604274 310.604274 0 1 0 308.726995-344.736612zM526.741332 713.36586a215.887037 215.887037 0 1 1-127.996266-197.114251L282.183132 686.05999a36.692263 36.692263 0 0 0 9.557055 50.942514 36.692263 36.692263 0 0 0 50.857183-9.471724l116.817926-170.405696c41.300129 39.252188 67.240705 94.717237 67.240706 156.240776z m931.983484 215.887037a215.801706 215.801706 0 0 1-213.071119-181.754699h140.283909A83.965551 83.965551 0 1 0 1390.972126 674.113672h-144.379789a215.887037 215.887037 0 1 1 212.21781 255.139225z" /></svg>