<?xml version="1.0" standalone="no"?><!DOCTYPE svg PUBLIC "-//W3C//DTD SVG 1.1//EN" "http://www.w3.org/Graphics/SVG/1.1/DTD/svg11.dtd">
<svg class="icon" height="512" viewBox="0 0 1024 1024" version="1.1" xmlns="http://www.w3.org/2000/svg"><path d="M821.361325 255.409041c-77.43972-51.922557-184.387497-63.049988-261.829264-29.66974-47.941895 18.541285-103.255689 66.75845-129.073704 129.811508-7.374968 18.542308-11.06194 40.798195-14.745842 63.051011-7.379061 29.673833-7.379061 55.636135-18.441001 77.888951-3.689019 14.832823-14.755052 25.966395-33.194006 37.089733 3.691065 3.705392 7.374968 3.705392 14.754029 3.705392 11.062963 0 25.811876 0 33.187867-3.705392 40.567951-14.833847 51.629891-40.799218 70.068845-70.467935 22.127973-37.092803 59.005882-63.055105 106.942661-59.344596 29.502941 0 44.257993 11.128455 55.320956 14.833847 36.873816 22.25077 51.628868 66.762543 55.31584 92.721775 3.687996 0 3.687996 14.838963 3.687996 18.547425 7.371898 48.216141 0 85.306898-11.062963 126.103046-47.941895 148.362003-202.827475 248.499677-365.090069 207.701482-66.382896-18.543332-125.383662-59.338457-173.327604-111.267153l-7.375991-7.413853c0 0 3.685949 7.413853 3.685949 11.125385 14.754029 18.540262 25.816992 33.378202 40.568974 51.92051 36.877909 37.09178 77.443813 70.468958 121.694643 89.01843 11.063987 3.705392 22.12695 7.414877 33.19503 11.126408 7.369851 0 14.747889 3.703345 22.125927 3.703345 7.371898 3.712555 14.746866 3.712555 22.124903 3.712555 22.124903 3.709485 40.564881 3.709485 62.692854 3.709485 36.871769 0 73.752748-11.125385 103.255689-22.251793 14.753005-3.711532 29.502941-11.126408 44.249807-18.549471 14.755052-7.416923 25.819039-14.833847 36.882002-22.25077C743.916489 778.372743 795.545356 644.849704 784.48137 518.747681c-3.685949-22.255887-7.375991-48.218188-14.748912-70.471005 0 0 3.686972 0 3.686972 3.709485 7.377014 11.127432 14.754029 22.252817 22.125927 29.668717 3.690042 14.836917 11.062963 33.382295 14.755052 48.217165 11.06194 33.379225 11.06194 55.633065 11.06194 55.633065 0 55.637158-3.691065 107.558691-22.125927 152.067394-22.13002 59.343573-66.382896 111.568005-118.010741 148.660808-44.25083 33.376155-95.879698 54.748928-158.572552 67.060325l7.371898 0c40.566928 0 81.132832-4.007267 118.011764-18.845207 29.501918-11.128455 62.690808-26.110681 92.193749-48.368614 36.875862-25.964348 70.070892-63.125713 92.196819-103.923908 44.249807-77.888951 59.002812-174.361143 44.249807-270.792403-7.370875-37.09178-18.438954-70.491471-33.18889-100.159164-7.377014-18.549471-14.753005-37.102013-22.125927-48.227398l3.685949 3.705392c3.691065 3.706415 7.379061 7.40976 11.063987 11.121292 25.816992 25.963325 44.25697 51.922557 62.691831 89.01229 3.692089 11.127432 7.378038 25.964348 11.063987 37.089733 7.374968 18.550495 11.066033 40.802288 11.066033 55.635111 3.686972 29.670763 0 51.92665 0 74.179466-3.691065 22.252817-7.375991 48.215118-14.753005 74.17742-3.685949 7.416923-7.378038 22.255887-11.063987 33.383318 3.686972-7.423063 3.686972-11.127432 7.379061-14.838963 11.062963-14.836917 29.500894-55.633065 36.874839-85.305875 3.689019-14.8318 7.374968-29.668717 11.06194-44.50768 3.691065-14.836917 3.691065-25.963325 7.377014-37.087687C968.87296 448.276676 917.247162 325.877999 821.361325 255.409041L821.361325 255.409041zM821.361325 255.409041M491.693 557.318138c12.496615-3.969405 21.869077-7.934716 28.116361-15.870456 12.497639-15.864316 15.620769-31.733749 34.363645-47.604204 6.246261-7.930623 12.490475-11.900028 18.741853-15.865339-9.371438-3.970428-18.741853-7.93574-28.117384-7.93574-21.86703-3.969405-34.361599 7.93574-46.855144 27.76946-15.618723 23.804149-24.993231 43.635823-46.861284 47.603181 3.124154 3.968381 9.370415 7.933693 12.493545 7.933693C469.824947 557.318138 482.323609 557.318138 491.693 557.318138L491.693 557.318138zM491.693 557.318138M202.635605 764.602112c77.44586 55.365982 180.698478 66.438155 261.83438 33.217543 47.936779-18.454304 99.565646-66.435085 125.383662-129.185244 7.375991-22.145369 14.747889-40.599673 18.438954-62.746066 3.687996-33.217543 3.687996-59.053977 14.748912-81.199347 7.377014-11.073196 18.439978-25.836435 33.189913-33.218566-3.687996-3.691065-7.370875-3.691065-11.062963-3.691065-14.749936-3.690042-25.811876 0-36.875862 3.691065-36.879955 14.764262-47.942919 40.600697-66.381873 66.438155-25.812899 36.906561-58.999742 66.439178-106.940614 62.745043-33.18889 0-44.2539-11.07422-55.316863-14.760169-40.564881-25.840528-55.319933-70.13229-59.004859-92.278683 0 0-3.691065-14.763239-3.691065-22.145369-7.369851-44.290739 0-84.891436 11.063987-121.800044 47.943942-147.636478 202.827475-247.290129 365.090069-206.691479 70.069869 18.455327 125.382639 59.055001 177.011506 107.036805-11.06194-18.452257-25.812899-33.216519-40.565904-51.671846-33.187867-36.908608-73.754794-70.12615-121.69669-88.582501-11.062963-3.690042-18.435884-7.380084-33.19196-11.07115-7.374968-3.690042-14.746866-3.690042-22.124903-7.382131-7.374968 0-11.062963 0-22.124903-3.690042-22.125927-3.692089-40.564881-3.692089-59.005882-3.692089-40.564881 0-73.752748 11.07422-106.941638 22.146393-11.062963 7.382131-29.500894 14.765285-44.255946 22.147416-11.063987 7.382131-25.812899 14.762215-36.875862 22.145369-106.946754 77.508281-154.883533 210.382545-147.511635 335.877747 3.518127 21.125133 7.072069 42.288129 13.793144 66.618257 0.230244 0.071631 0.402159 0.192382 0.533143 0.337691 0.021489 0.020466 0.030699 0.054235 0.046049 0.073678 0.103354 0.138146 0.176009 0.310062 0.230244 0.517793 0.01535 0.058328 0.028653 0.132006 0.037862 0.197498 0.038886 0.215918 0.068562 0.475837 0.084934 0.76748 0.004093 0.081864 0.010233 0.165776 0.014326 0.257873 0.008186 0.387833 0.014326 0.74599 0.014326 1.27504-0.341784-1.191128-0.633427-2.566452-0.959861-3.589758l0 0c-0.25071 0-0.586354-0.037862-0.983397-0.062422-0.088004-0.01228-0.171915 0.027629-0.264013 0.023536-0.417509-0.016373-0.883113 0-1.478677 0-7.375991-11.07422-14.755052-22.137183-18.438954-33.207309-7.380084-14.766308-14.755052-29.525454-18.441001-44.286646-7.378038-33.220612-7.378038-55.364959-7.378038-55.364959-3.685949-55.364959 3.687996-107.036805 22.125927-151.329591 22.12695-59.052954 62.693878-110.725824 114.319675-147.633409 47.944965-36.910655 95.887884-55.364959 162.263617-66.438155 0-3.689019-11.062963 0-11.062963-3.689019-40.565904 3.689019-77.43972 7.380084-114.318652 22.145369-33.18889 7.382131-66.376757 25.836435-92.195795 44.289716-40.565904 29.528524-70.068845 66.437132-95.879698 107.037828-40.565904 77.515445-59.005882 173.47803-44.25697 265.750573 7.375991 40.599673 18.438954 70.127174 33.194006 103.346763 7.374968 14.760169 18.438954 36.907585 25.810852 47.981804 0 0-3.685949-3.693112-7.371898-3.693112l-11.063987-11.069103c-25.815969-25.837458-44.255946-51.673893-59.003835-88.582501-7.377014-14.764262-11.063987-25.837458-14.753005-40.600697-3.686972-14.764262-7.373944-36.909631-11.063987-51.67287 0-29.528524 0-51.67287 3.690042-73.818239 0-22.145369 7.373944-47.981804 14.749936-77.510328 0-7.381108 7.377014-22.146393 11.062963-29.525454-7.378038 7.379061-7.378038 7.379061-11.062963 14.762215-11.062963 14.763239-25.813922 55.363935-36.879955 81.202417-3.684926 18.452257-7.372921 29.525454-11.063987 47.980781 0 11.073196-3.685949 25.837458-3.685949 36.908608C55.12704 576.35982 106.756931 698.16805 202.635605 764.602112L202.635605 764.602112zM202.635605 764.602112" /></svg>