<?xml version="1.0" encoding="utf-8"?>
<!-- Svg Vector Icons : http://www.onlinewebfonts.com/icon -->
<!DOCTYPE svg PUBLIC "-//W3C//DTD SVG 1.1//EN" "http://www.w3.org/Graphics/SVG/1.1/DTD/svg11.dtd">
<svg version="1.1" xmlns="http://www.w3.org/2000/svg" xmlns:xlink="http://www.w3.org/1999/xlink" x="0px" y="0px" viewBox="0 0 1000 1000" enable-background="new 0 0 1000 1000" xml:space="preserve">
<metadata> Svg Vector Icons : http://www.onlinewebfonts.com/icon </metadata>
<g><g transform="translate(0.000000,511.000000) scale(0.100000,-0.100000)"><path d="M6175.9,4964c-186.2-34.8-368.3-221-368.3-378.5v-51.2h-665h-665v-624.1v-622l88-38.9c176-79.8,243.5-212.8,243.5-474.7c0-116.6-12.3-202.6-34.8-259.9c-40.9-102.3-151.4-206.7-237.4-225.1l-59.3-10.2v-652.7V973.9h665h665v-55.3c0-81.8,75.7-223,155.5-290.5c143.2-116.6,327.4-135.1,497.2-51.2c122.8,61.4,218.9,190.3,241.4,319.2l12.3,77.8H7375h663v673.2v671.2l81.8,12.3c163.7,20.5,327.4,184.2,360.1,356c45,235.3-133,493.1-364.2,532l-77.8,12.3v650.7v652.7h-665c-654.8,0-665,0-665,40.9c0,22.5-14.3,75.7-32.7,118.7C6595.4,4886.2,6380.6,5002.8,6175.9,4964z M6413.3,4716.4c55.3-45,79.8-108.4,90-243.5l10.2-133l660.9-6.1l658.9-4.1v-654.8v-654.8h143.2c133,0,149.4-4.1,214.9-65.5c92.1-83.9,112.5-184.2,61.4-290.6c-45-96.2-126.9-137.1-290.6-151.4l-128.9-10.2v-660.9v-663h-665h-665v-135c0-151.4-34.8-229.2-122.8-282.4c-108.4-63.4-266-28.6-331.5,73.7c-18.4,26.6-38.9,114.6-47.1,196.4l-14.3,147.3H5335h-652.7v478.8v476.8l79.8,53.2c176,116.6,249.6,290.6,251.7,579.1c2,290.5-90,501.3-255.8,591.3l-75.7,40.9v464.5v466.5H5335h650.7l14.3,143.2c16.4,163.7,75.7,253.7,182.1,282.4C6255.8,4775.7,6366.2,4755.2,6413.3,4716.4z"/><path d="M569.4,3879.5v-654.8h-55.3c-81.8-2.1-210.8-65.5-286.5-139.1c-251.7-251.7-110.5-697.7,241.5-757.1l90-16.4l6.1-669.1l4.1-669.1h683.4h681.4l12.3-85.9c36.8-272.1,380.6-442,648.6-321.2c151.4,69.6,239.4,178,276.2,341.7l14.3,65.5h683.4h683.4v675.2v675.2h51.2c128.9,0,288.5,110.5,360.1,249.6c55.2,108.4,53.2,290.6-8.2,407.2c-55.2,106.4-208.7,216.9-323.3,235.3l-79.8,14.3v650.7v652.7h-681.4h-683.4l-24.6-116.6c-34.8-149.4-167.8-290.5-313.1-331.5c-280.3-79.8-575,94.1-605.7,356l-10.2,92.1h-681.4H569.4V3879.5z"/><path d="M589.9-1051.8V-2832H1261h669.1l26.6-106.4c49.1-212.8,221-343.8,442-343.8c75.7,0,157.6,16.4,208.7,38.9c112.5,51.2,225.1,188.2,253.7,311l24.6,100.3h673.2h673.2v660.9v660.9l-96.2,24.5c-173.9,47.1-272.1,206.7-272.1,444c0,241.4,112.5,421.5,282.4,450.2l85.9,14.3V75.6v652.7h-654.8h-652.7l-26.6-85.9c-34.8-114.6-153.5-233.3-266-264c-49.1-12.3-173.9-18.4-284.4-14.3c-255.8,10.2-343.8,61.4-425.6,243.5l-53.2,120.7h-638.4H589.9V-1051.8z M1807.4,431.7c67.5-116.6,188.3-206.7,333.5-247.6c161.7-47.1,470.6-32.7,607.7,30.7c116.6,51.2,241.4,165.7,278.3,249.6l22.5,59.3h489h489V55.2v-468.6l-61.4-24.6c-79.8-32.7-198.5-167.8-249.6-282.4c-51.2-116.6-69.6-366.3-38.9-519.7c32.7-151.4,128.9-296.7,251.7-374.5l96.2-61.4v-474.7l2-476.7h-675.2H2677v-112.5c0-212.8-94.1-337.6-257.8-337.6c-186.2,0-257.8,79.8-274.2,296.7l-10.2,143.2l-669.1,6.1l-671.1,4.1v1575.6V523.7h478.8h478.8L1807.4,431.7z"/><path d="M4661.8-49.2c0-270.1,8.2-491.1,16.4-491.1c8.2,0,57.3,40.9,106.4,92.1l92.1,92.1l708-708l708-708l12.3,112.5c20.5,198.5,128.9,349.9,292.6,403.1c40.9,14.3,133,20.5,208.7,16.4l135.1-8.2l-744.8,730.5l-746.9,732.5l112.5,112.5l110.5,114.6h-505.4h-505.4V-49.2z"/><path d="M7610.3-914.7c-106.4-114.6-270.1-288.5-362.2-388.8l-167.8-178l-77.8,45c-229.2,135-540.2-49.1-540.2-317.2c0-73.7,34.8-173.9,85.9-241.4c20.5-28.7-30.7-90-339.7-419.5l-362.2-386.7l251.7-235.3c139.1-128.9,315.1-294.7,390.8-368.3l141.2-135l-45-85.9c-96.2-182.1-16.4-411.3,171.9-497.2c114.6-51.2,210.8-49.1,331.5,12.3l98.2,51.2l53.2-47.1c28.7-26.6,196.4-184.2,374.4-349.9c178-165.7,329.4-298.7,339.7-294.6c12.3,4.1,656.8,685.5,710,750.9c4.1,4.1,47.1-12.3,96.2-36.8c261.9-126.8,546.3,69.6,521.8,360.1c-6.1,69.6-26.6,133-53.2,169.8l-45,61.4l358.1,382.6c196.4,210.8,358.1,388.8,358.1,397c0,6.1-131,135-290.6,286.5c-161.6,149.4-331.5,309-378.5,351.9L9147-1946l-57.3-45c-59.3-47.1-173.9-57.3-261.9-22.5c-69.6,24.6-233.3,176-270.1,247.6c-36.8,71.6-34.8,198.5,2,263.9c16.4,28.7,28.7,57.3,30.7,63.4c0,12.3-769.4,734.6-781.7,734.6C7804.7-706,7716.7-800.1,7610.3-914.7z"/></g></g>
</svg>